<svg id="snapchat_2_" data-name="snapchat (2)" xmlns="http://www.w3.org/2000/svg" width="26.04" height="24.413" viewBox="0 0 26.04 24.413">
  <g id="Group_58" data-name="Group 58" transform="translate(0 0)">
    <path id="Path_738" data-name="Path 738" d="M25.529,34.218c-3.481-.573-5.05-4.139-5.114-4.29A.246.246,0,0,0,20.4,29.9a1.076,1.076,0,0,1-.122-.885c.19-.446.92-.677,1.4-.83.14-.044.272-.086.381-.129a2.947,2.947,0,0,0,1.038-.62.986.986,0,0,0,.316-.71,1.117,1.117,0,0,0-.837-.968,1.512,1.512,0,0,0-.566-.107,1.261,1.261,0,0,0-.527.107,2.96,2.96,0,0,1-1.086.309,1,1,0,0,1-.36-.078c.01-.163.02-.33.031-.5l0-.075c.112-1.763.251-3.955-.332-5.257a7.072,7.072,0,0,0-1.593-2.28,6.663,6.663,0,0,0-1.906-1.256,7.53,7.53,0,0,0-2.974-.628h-.065l-.448,0a7.559,7.559,0,0,0-2.977.628,6.626,6.626,0,0,0-1.9,1.255,7.094,7.094,0,0,0-1.587,2.275c-.583,1.3-.444,3.493-.334,5.254v0c.011.189.024.386.036.578a1.043,1.043,0,0,1-.426.08,2.824,2.824,0,0,1-1.16-.311,1.043,1.043,0,0,0-.441-.091,1.559,1.559,0,0,0-.78.218,1.079,1.079,0,0,0-.552.7.972.972,0,0,0,.371.913,3.2,3.2,0,0,0,.97.555c.111.044.243.085.381.129.482.153,1.213.384,1.4.83a1.084,1.084,0,0,1-.124.885.23.23,0,0,0-.013.029,8.618,8.618,0,0,1-1.312,2.028,7.361,7.361,0,0,1-1.582,1.4,5.822,5.822,0,0,1-2.222.864A.608.608,0,0,0,0,34.851a.771.771,0,0,0,.063.265v0a1.627,1.627,0,0,0,.882.754,10.074,10.074,0,0,0,2.547.662,3.09,3.09,0,0,1,.156.56c.042.2.086.4.15.61a.667.667,0,0,0,.7.508,3.4,3.4,0,0,0,.6-.083,6.811,6.811,0,0,1,1.366-.155,5.935,5.935,0,0,1,.977.083A4.638,4.638,0,0,1,9.264,39a5.907,5.907,0,0,0,3.6,1.4q.066,0,.132,0c.052,0,.119,0,.187,0a5.916,5.916,0,0,0,3.6-1.4l0,0a4.655,4.655,0,0,1,1.824-.941,5.935,5.935,0,0,1,.977-.083,6.844,6.844,0,0,1,1.366.145,3.3,3.3,0,0,0,.6.073h.029a.659.659,0,0,0,.669-.5c.062-.21.106-.405.15-.605a3.2,3.2,0,0,1,.155-.557,10.144,10.144,0,0,0,2.547-.662,1.633,1.633,0,0,0,.881-.752.773.773,0,0,0,.065-.269A.606.606,0,0,0,25.529,34.218Z" transform="translate(0 -15.988)" fill="#fbdf33"/>
  </g>
</svg>
